Coordinates
version=1
nRows=57
nColumns=21
inDegrees=no
endheader
time	ra_wr_s_p	ra_wr_e_f	ra_cmc1_ad_ab	ra_cmc1_f_e	ra_mcp1_f_e	ra_ip1_f_e	ra_mcp2_e_f	ra_pip2_e_f	ra_dip2_e_f	ra_mcp3_e_f	ra_pip3_e_f	ra_dip3_e_f	ra_mcp4_e_f	ra_pip4_e_f	ra_dip4_e_f	ra_mcp5_e_f	ra_pip5_e_f	ra_dip5_e_f	ra_el_e_f	ra_wr_ad_ab
0.250000	0.000000	0.087300	0.611716	0.611716	-0.550523	-1.101046	1.101046	1.468062	1.101046	1.101046	1.468062	1.101046	1.101046	1.468062	1.101046	1.101046	1.468062	1.101046	1.139818	0.085000
0.251000	0.000000	0.087300	0.613367	0.613367	-0.552009	-1.104019	1.104019	1.472025	1.104019	1.104019	1.472025	1.104019	1.104019	1.472025	1.104019	1.104019	1.472025	1.104019	1.150552	0.085000
0.252000	0.000000	0.087300	0.615018	0.615018	-0.553495	-1.106991	1.106991	1.475988	1.106991	1.106991	1.475988	1.106991	1.106991	1.475988	1.106991	1.106991	1.475988	1.106991	1.161283	0.085000
0.253000	0.000000	0.087300	0.616669	0.616669	-0.554981	-1.109961	1.109961	1.479948	1.109961	1.109961	1.479948	1.109961	1.109961	1.479948	1.109961	1.109961	1.479948	1.109961	1.172010	0.085000
0.254000	0.000000	0.087300	0.618318	0.618318	-0.556465	-1.112930	1.112930	1.483907	1.112930	1.112930	1.483907	1.112930	1.112930	1.483907	1.112930	1.112930	1.483907	1.112930	1.182730	0.085000
0.255000	0.000000	0.087300	0.619966	0.619966	-0.557948	-1.115897	1.115897	1.487862	1.115897	1.115897	1.487862	1.115897	1.115897	1.487862	1.115897	1.115897	1.487862	1.115897	1.193442	0.085000
0.256000	0.000000	0.087300	0.621613	0.621613	-0.559430	-1.118860	1.118860	1.491814	1.118860	1.118860	1.491814	1.118860	1.118860	1.491814	1.118860	1.118860	1.491814	1.118860	1.204144	0.085000
0.257000	0.000000	0.087300	0.623257	0.623257	-0.560910	-1.121820	1.121820	1.495761	1.121820	1.121820	1.495761	1.121820	1.121820	1.495761	1.121820	1.121820	1.495761	1.121820	1.214834	0.085000
0.258000	0.000000	0.087300	0.624900	0.624900	-0.562388	-1.124777	1.124777	1.499703	1.124777	1.124777	1.499703	1.124777	1.124777	1.499703	1.124777	1.124777	1.499703	1.124777	1.225510	0.085000
0.259000	0.000000	0.087300	0.626540	0.626540	-0.563865	-1.127729	1.127729	1.503639	1.127729	1.127729	1.503639	1.127729	1.127729	1.503639	1.127729	1.127729	1.503639	1.127729	1.236171	0.085000
0.260000	0.000000	0.087300	0.628178	0.628178	-0.565338	-1.130676	1.130676	1.507569	1.130676	1.130676	1.507569	1.130676	1.130676	1.507569	1.130676	1.130676	1.507569	1.130676	1.246814	0.085000
0.261000	0.000000	0.087300	0.629812	0.629812	-0.566809	-1.133618	1.133618	1.511491	1.133618	1.133618	1.511491	1.133618	1.133618	1.511491	1.133618	1.133618	1.511491	1.133618	1.257437	0.085000
0.262000	0.000000	0.087300	0.631443	0.631443	-0.568277	-1.136555	1.136555	1.515406	1.136555	1.136555	1.515406	1.136555	1.136555	1.515406	1.136555	1.136555	1.515406	1.136555	1.268040	0.085000
0.263000	0.000000	0.087300	0.633071	0.633071	-0.569742	-1.139485	1.139485	1.519313	1.139485	1.139485	1.519313	1.139485	1.139485	1.519313	1.139485	1.139485	1.519313	1.139485	1.278620	0.085000
0.264000	0.000000	0.087300	0.634695	0.634695	-0.571204	-1.142408	1.142408	1.523210	1.142408	1.142408	1.523210	1.142408	1.142408	1.523210	1.142408	1.142408	1.523210	1.142408	1.289176	0.085000
0.265000	0.000000	0.087300	0.636315	0.636315	-0.572662	-1.145324	1.145324	1.527098	1.145324	1.145324	1.527098	1.145324	1.145324	1.527098	1.145324	1.145324	1.527098	1.145324	1.299705	0.085000
0.266000	0.000000	0.087300	0.637931	0.637931	-0.574116	-1.148232	1.148232	1.530976	1.148232	1.148232	1.530976	1.148232	1.148232	1.530976	1.148232	1.148232	1.530976	1.148232	1.310207	0.085000
0.267000	0.000000	0.087300	0.639542	0.639542	-0.575566	-1.151132	1.151132	1.534842	1.151132	1.151132	1.534842	1.151132	1.151132	1.534842	1.151132	1.151132	1.534842	1.151132	1.320679	0.085000
0.268000	0.000000	0.087300	0.641148	0.641148	-0.577012	-1.154023	1.154023	1.538698	1.154023	1.154023	1.538698	1.154023	1.154023	1.538698	1.154023	1.154023	1.538698	1.154023	1.331120	0.085000
0.269000	0.000000	0.087300	0.642750	0.642750	-0.578453	-1.156905	1.156905	1.542541	1.156905	1.156905	1.542541	1.156905	1.156905	1.542541	1.156905	1.156905	1.542541	1.156905	1.341528	0.085000
0.270000	0.000000	0.087300	0.644346	0.644346	-0.579889	-1.159778	1.159778	1.546371	1.159778	1.159778	1.546371	1.159778	1.159778	1.546371	1.159778	1.159778	1.546371	1.159778	1.351902	0.085000
0.271000	0.000000	0.087300	0.645936	0.645936	-0.581320	-1.162641	1.162641	1.550188	1.162641	1.162641	1.550188	1.162641	1.162641	1.550188	1.162641	1.162641	1.550188	1.162641	1.362239	0.085000
0.272000	0.000000	0.087300	0.647521	0.647521	-0.582747	-1.165493	1.165493	1.553991	1.165493	1.165493	1.553991	1.165493	1.165493	1.553991	1.165493	1.165493	1.553991	1.165493	1.372539	0.085000
0.273000	0.000000	0.087300	0.649100	0.649100	-0.584167	-1.168335	1.168335	1.557780	1.168335	1.168335	1.557780	1.168335	1.168335	1.557780	1.168335	1.168335	1.557780	1.168335	1.382800	0.085000
0.274000	0.000000	0.087300	0.650672	0.650672	-0.585583	-1.171165	1.171165	1.561554	1.171165	1.171165	1.561554	1.171165	1.171165	1.561554	1.171165	1.171165	1.561554	1.171165	1.393021	0.085000
0.275000	0.000000	0.087300	0.652238	0.652238	-0.586992	-1.173984	1.173984	1.565312	1.173984	1.173984	1.565312	1.173984	1.173984	1.565312	1.173984	1.173984	1.565312	1.173984	1.403199	0.085000
0.276000	0.000000	0.087300	0.653797	0.653797	-0.588395	-1.176790	1.176790	1.569054	1.176790	1.176790	1.569054	1.176790	1.176790	1.569054	1.176790	1.176790	1.569054	1.176790	1.413334	0.085000
0.277000	0.000000	0.087300	0.655350	0.655350	-0.589792	-1.179585	1.179585	1.572779	1.179585	1.179585	1.572779	1.179585	1.179585	1.572779	1.179585	1.179585	1.572779	1.179585	1.423424	0.085000
0.278000	0.000000	0.087300	0.656895	0.656895	-0.591183	-1.182366	1.182366	1.576488	1.182366	1.182366	1.576488	1.182366	1.182366	1.576488	1.182366	1.182366	1.576488	1.182366	1.433467	0.085000
0.279000	0.000000	0.087300	0.658433	0.658433	-0.592567	-1.185134	1.185134	1.580179	1.185134	1.185134	1.580179	1.185134	1.185134	1.580179	1.185134	1.185134	1.580179	1.185134	1.443463	0.085000
0.280000	0.000000	0.087300	0.659963	0.659963	-0.593944	-1.187889	1.187889	1.583852	1.187889	1.187889	1.583852	1.187889	1.187889	1.583852	1.187889	1.187889	1.583852	1.187889	1.453410	0.085000
0.281000	0.000000	0.087300	0.661486	0.661486	-0.595315	-1.190629	1.190629	1.587506	1.190629	1.190629	1.587506	1.190629	1.190629	1.587506	1.190629	1.190629	1.587506	1.190629	1.463307	0.085000
0.282000	0.000000	0.087300	0.663001	0.663001	-0.596678	-1.193356	1.193356	1.591141	1.193356	1.193356	1.591141	1.193356	1.193356	1.591141	1.193356	1.193356	1.591141	1.193356	1.473152	0.085000
0.283000	0.000000	0.087300	0.664507	0.664507	-0.598034	-1.196068	1.196068	1.594757	1.196068	1.196068	1.594757	1.196068	1.196068	1.594757	1.196068	1.196068	1.594757	1.196068	1.482945	0.085000
0.284000	0.000000	0.087300	0.666006	0.666006	-0.599382	-1.198765	1.198765	1.598353	1.198765	1.198765	1.598353	1.198765	1.198765	1.598353	1.198765	1.198765	1.598353	1.198765	1.492684	0.085000
0.285000	0.000000	0.087300	0.667496	0.667496	-0.600723	-1.201446	1.201446	1.601928	1.201446	1.201446	1.601928	1.201446	1.201446	1.601928	1.201446	1.201446	1.601928	1.201446	1.502367	0.085000
0.286000	0.000000	0.087300	0.668977	0.668977	-0.602056	-1.204112	1.204112	1.605483	1.204112	1.204112	1.605483	1.204112	1.204112	1.605483	1.204112	1.204112	1.605483	1.204112	1.511995	0.085000
0.287000	0.000000	0.087300	0.670449	0.670449	-0.603381	-1.206763	1.206763	1.609017	1.206763	1.206763	1.609017	1.206763	1.206763	1.609017	1.206763	1.206763	1.609017	1.206763	1.521565	0.085000
0.288000	0.000000	0.087300	0.671913	0.671913	-0.604698	-1.209397	1.209397	1.612529	1.209397	1.209397	1.612529	1.209397	1.209397	1.612529	1.209397	1.209397	1.612529	1.209397	1.531078	0.085000
0.289000	0.000000	0.087300	0.673367	0.673367	-0.606007	-1.212015	1.212015	1.616020	1.212015	1.212015	1.616020	1.212015	1.212015	1.616020	1.212015	1.212015	1.616020	1.212015	1.540530	0.085000
0.290000	0.000000	0.087300	0.674812	0.674812	-0.607308	-1.214616	1.214616	1.619488	1.214616	1.214616	1.619488	1.214616	1.214616	1.619488	1.214616	1.214616	1.619488	1.214616	1.549923	0.085000
0.291000	0.000000	0.087300	0.676248	0.676248	-0.608600	-1.217200	1.217200	1.622933	1.217200	1.217200	1.622933	1.217200	1.217200	1.622933	1.217200	1.217200	1.622933	1.217200	1.559254	0.085000
0.292000	0.000000	0.087300	0.677674	0.677674	-0.609883	-1.219767	1.219767	1.626356	1.219767	1.219767	1.626356	1.219767	1.219767	1.626356	1.219767	1.219767	1.626356	1.219767	1.568524	0.085000
0.293000	0.000000	0.087300	0.679091	0.679091	-0.611158	-1.222316	1.222316	1.629755	1.222316	1.222316	1.629755	1.222316	1.222316	1.629755	1.222316	1.222316	1.629755	1.222316	1.577730	0.085000
0.294000	0.000000	0.087300	0.680497	0.680497	-0.612424	-1.224848	1.224848	1.633131	1.224848	1.224848	1.633131	1.224848	1.224848	1.633131	1.224848	1.224848	1.633131	1.224848	1.586873	0.085000
0.295000	0.000000	0.087300	0.681894	0.681894	-0.613681	-1.227362	1.227362	1.636483	1.227362	1.227362	1.636483	1.227362	1.227362	1.636483	1.227362	1.227362	1.636483	1.227362	1.595951	0.085000
0.296000	0.000000	0.087300	0.683281	0.683281	-0.614929	-1.229858	1.229858	1.639811	1.229858	1.229858	1.639811	1.229858	1.229858	1.639811	1.229858	1.229858	1.639811	1.229858	1.604964	0.085000
0.297000	0.000000	0.087300	0.684657	0.684657	-0.616168	-1.232336	1.232336	1.643114	1.232336	1.232336	1.643114	1.232336	1.232336	1.643114	1.232336	1.232336	1.643114	1.232336	1.613911	0.085000
0.298000	0.000000	0.087300	0.686023	0.686023	-0.617397	-1.234795	1.234795	1.646393	1.234795	1.234795	1.646393	1.234795	1.234795	1.646393	1.234795	1.234795	1.646393	1.234795	1.622791	0.085000
0.299000	0.000000	0.087300	0.687379	0.687379	-0.618618	-1.237235	1.237235	1.649647	1.237235	1.237235	1.649647	1.237235	1.237235	1.649647	1.237235	1.237235	1.649647	1.237235	1.631604	0.085000
0.300000	0.000000	0.087300	0.688725	0.688725	-0.619828	-1.239657	1.239657	1.652876	1.239657	1.239657	1.652876	1.239657	1.239657	1.652876	1.239657	1.239657	1.652876	1.239657	1.640348	0.085000
0.301000	0.000000	0.087300	0.690059	0.690059	-0.621030	-1.242060	1.242060	1.656080	1.242060	1.242060	1.656080	1.242060	1.242060	1.656080	1.242060	1.242060	1.656080	1.242060	1.649025	0.085000
0.302000	0.000000	0.087300	0.691384	0.691384	-0.622222	-1.244443	1.244443	1.659258	1.244443	1.244443	1.659258	1.244443	1.244443	1.659258	1.244443	1.244443	1.659258	1.244443	1.657632	0.085000
0.303000	0.000000	0.087300	0.692697	0.692697	-0.623404	-1.246807	1.246807	1.662410	1.246807	1.246807	1.662410	1.246807	1.246807	1.662410	1.246807	1.246807	1.662410	1.246807	1.666169	0.085000
0.304000	0.000000	0.087300	0.694000	0.694000	-0.624576	-1.249152	1.249152	1.665536	1.249152	1.249152	1.665536	1.249152	1.249152	1.665536	1.249152	1.249152	1.665536	1.249152	1.674636	0.085000
0.305000	0.000000	0.087300	0.695292	0.695292	-0.625739	-1.251477	1.251477	1.668637	1.251477	1.251477	1.668637	1.251477	1.251477	1.668637	1.251477	1.251477	1.668637	1.251477	1.683033	0.085000
0.306000	0.000000	0.087300	0.696573	0.696573	-0.626892	-1.253783	1.253783	1.671711	1.253783	1.253783	1.671711	1.253783	1.253783	1.671711	1.253783	1.253783	1.671711	1.253783	1.691359	0.085000
